<?xml version="1.0" encoding="UTF-8"?>
<svg id="Layer_1" data-name="Layer 1" xmlns="http://www.w3.org/2000/svg" viewBox="0 0 850.39 850.39">
  <defs>
    <style>
      .cls-1 {
        fill: #50b095;
      }

      .cls-2 {
        fill: #9d3049;
      }
    </style>
  </defs>
  <path class="cls-1" d="M635.97,122.89c18.97-1.01,36.19,1.81,52.88,6.1,7.66,1.97,13.78,5.22,18.81,11.7.45.58,3.96,5.73,4.07,6.1.19.67-.24,1.53,0,2.03.31.67,1.91,2.59,2.03,3.05.23.85-.2,2.13,0,3.05.09.4.96.64,1.02,1.02.44,3,.44,12.26,0,15.25-.05.38-.93.62-1.02,1.02-.2.92.23,2.2,0,3.05-.11.39-.86.6-1.02,1.02-2.83,7.83-9.71,15.54-16.78,18.81-1.31.61-5,2.75-6.1,3.05-.85.23-2.13-.2-3.05,0-.4.09-.64.96-1.02,1.02-2.79.41-9.29.3-12.2,0-3.42-.35-8.96-2.65-12.2-3.05-49.69-6.13-85.3,21.42-112.37,60.51-1.4,5.2-7.1,8.28-6.1,14.24.07.38.93.62,1.02,1.02,3.2,14.36,7.14,29.04,9.15,43.73,2.38,17.35,3.17,36.12,4.07,53.9.68,13.61-1.27,28.46-2.03,41.7-.47,8.19.14,12.68-2.03,20.34-1.87,6.61-2.9,7.78-7.12,13.22-.17.22.16.82,0,1.02-2.68,3.28-9.9,8.06-13.73,9.66-.57.24-1.45-.24-2.03,0s-2.68,1.95-3.05,2.03c-1.74.38-4.27-.33-6.1,0-.29.05-1.07,1.62-3.05,1.02-.42-.13-.64-.95-1.02-1.02-1.83-.33-4.27.33-6.1,0-.38-.07-.61-.92-1.02-1.02-10.33-2.56-18.05-8.6-22.88-17.8-1.71-3.25-2.16-4.53-3.05-8.14-.1-.4-.95-.64-1.02-1.02-.99-5.59-.24-19.08,0-25.42.01-.35,1-.66,1.02-1.02,1.63-39.29.84-79.73-10.17-114.92-9.41-30.06-29.66-62.52-61.53-72.71-33.37-10.68-69.54,1.87-94.58,26.44-5.01,2.92-8.76,3.99-14.24,5.08-.39.08-.64.96-1.02,1.02-2.48.36-8.65.31-11.19,0-.37-.05-.63-.95-1.02-1.02-2.3-.4-2.6-.03-5.08-1.02-8.1-3.22-13.02-6.79-17.8-13.73-1.21-1.76-3.47-4.6-4.07-6.1-.23-.57.21-1.41,0-2.03-.14-.41-.9-.62-1.02-1.02-.24-.82.19-2.11,0-3.05-.08-.39-.96-.64-1.02-1.02-.41-2.84-.41-11.4,0-14.24.06-.38.94-.62,1.02-1.02.19-.94-.23-2.22,0-3.05.11-.4.88-.6,1.02-1.02.21-.63-.23-1.47,0-2.03.89-2.24,3.65-5.2,5.08-7.12,11.77-15.69,35.52-30.11,53.39-38.14,48.19-21.65,106.81-17.44,150.51,13.22,8.27,5.8,23.7,17.08,30,25.93.17.24.27,2.19,1.53,2.54,2.32.66,5.92-3.72,7.63-5.59,34.47-37.88,74.02-62.91,124.58-65.59Z"/>
  <path class="cls-1" d="M328.85,412.73c4.22-.53,7.22,1.14,11.19,1.02,9.89,3.92,16.18,7.38,21.86,16.78.94,1.56,3.71,5.81,4.07,7.12.23.85-.2,2.13,0,3.05.09.4.95.64,1.02,1.02.26,1.56-.24,3.51,0,5.08.22,1.45,1.48,2.99,1.02,6.1-.55,3.67-1.83,9.6-2.03,13.22-1.73,30.27-1.25,64.05,4.07,92.54,2.98,15.95,8.42,31.69,15.25,46.78s20.67,32.76,35.09,42.2c5.24,3.43,18.54,8.87,24.41,10.17,19.45,4.3,39.7.6,56.95-7.12,20.75-8.21,32.9-31.34,57.97-27.46,1.2,1.56,4.45,1.38,6.1,2.03,7.98,3.16,17.95,12,20.85,19.83.62,1.69.61,4.47,1.02,6.1.1.4.93.62,1.02,1.02.26,1.17-.22,2.82,0,4.07.07.38.92.62,1.02,1.02.59,2.53-.96,3.66-1.02,4.07-.24,1.58.26,3.53,0,5.08-.06.38-.93.62-1.02,1.02-.37,1.76-.39,4.4-1.02,6.1-3.14,8.51-17.62,20.6-24.92,25.93-56.45,41.29-132.08,44.63-189.16,3.05-11.79-8.59-20.19-18.19-28.98-28.98-2.94-3.61-4.9-5.3-8.14-1.02-8.05,10.64-19.82,20.91-30,28.98-13.31,10.55-30.41,21.16-46.78,27.46-7.63,2.94-14.98,4.26-22.37,6.1-26.98,6.71-58.04,4.73-84.41-3.05-.57-.17-1.47-1.87-2.03-2.03-3.56-1.02-2.47-1.04-5.08-3.05-3.44-2.65-6.22-4.68-8.64-8.64-1.16-1.9-3.23-5.87-4.07-8.14-.99-2.68-.62-5.42-1.02-8.14-.06-.38-.95-.63-1.02-1.02-.52-2.84.89-4.23,1.02-5.08.23-1.59-.26-3.53,0-5.08.06-.38.93-.62,1.02-1.02.4-1.83.35-2.22,1.02-4.07,2.76-7.63,7.39-12.47,13.73-16.78.69-.47,1.56-1.9,2.03-2.03,3.03-.87,5.68-2.35,8.14-3.05.83-.23,2.11.19,3.05,0,.39-.08.64-.96,1.02-1.02,2.59-.38,8.48-.28,11.19,0,.37.04.63.96,1.02,1.02,10.79,1.62,24.17,4.09,35.59,3.05.37-.03.64-.97,1.02-1.02,6.79-.86,9.98-1.2,16.27-3.05,32.66-9.6,54.61-33.72,72.71-61.53,1.44-2.2,2.94-3.62,4.07-6.1.2-.44.94-.66,1.02-1.02.25-1.14.19-4.82,0-6.1-.09-.62-1.86-4.3-2.03-5.08-9.57-42.42-10.8-90.56-6.1-135.26.38-3.6-.25-6.73,1.02-10.17,1.5-4.09,7.19-12.92,10.68-15.76.19-.16.8.17,1.02,0,1.7-1.32,2.19-1.93,4.07-3.05,1.57-.94,5.8-3.71,7.12-4.07.85-.23,2.15.21,3.05,0,.4-.09.62-.93,1.02-1.02,1.16-.27,2.82.22,4.07,0,.39-.07.64-.97,1.02-1.02Z"/>
  <path class="cls-2" d="M148.84,139.17c2.88-.36,9.33-.36,12.2,0,.37.05.63.95,1.02,1.02,1.25.22,2.9-.26,4.07,0,.38.08.59.86,1.02,1.02,5.59,2,10.9,4.88,14.75,9.66.64.79,5.94,8.6,6.1,9.15.19.67-.24,1.53,0,2.03.3.63,1.96,2.69,2.03,3.05.49,2.26-.36,5.67,0,8.14.05.37.92.61,1.02,1.02.29,1.26-1.53,12.19-2.03,14.24-2.11,8.48-2.81,19.97-2.03,29.49.03.36.98.65,1.02,1.02.4,3.82.14,6.4,1.02,10.17,7.3,31.23,30.61,55.67,56.44,73.73,3.52,2.46,7.42,5.16,11.19,7.12.65.34,2.7,1.96,3.05,2.03,1.3.28,5.67.21,7.12,0,.63-.09,4.28-1.85,5.08-2.03,37.03-8.59,79.76-9.62,120-7.12,7.78.48,15.33-.11,22.37,2.03,1.53.47,3.95,2.35,6.1,2.03,4.41,1.76,13.44,10.68,15.76,14.75,4.63,8.11,4.32,16.97,4.07,26.44-1.77,2.07-1.73,5.93-3.05,8.14-2.12,3.55-6.43,9.1-9.66,11.7-1.02.82-3.77,2.44-5.08,3.05-1.68.78-4.4,2.42-6.1,3.05-2.22.82-4.9.62-7.12,1.02-.39.07-.64.97-1.02,1.02-2.15.26-5.93.21-8.14,0-3.94-.37-10.33-1.83-14.24-2.03-8.4-.45-20.95,1.34-28.48,0-11.32-2.02-30.79.52-42.71,2.03-38.16,4.84-78.27,14.46-104.24,47.29-6.58,8.32-10.58,16.18-13.22,26.44-2.43,9.48-4.18,19.53-3.05,30.51.35,3.43,2.21,8.73,3.05,12.2,3.22,13.3,9,25.7,17.29,36.61,6.02,7.93,11.31,11.05,14.24,21.36.12.41.95.64,1.02,1.02.27,1.53-.24,3.5,0,5.08.06.38.98.65,1.02,1.02.21,1.94.21,5.18,0,7.12-.04.37-.96.63-1.02,1.02-.24,1.58.31,3.64,0,5.08-.08.37-1.8,2.46-2.03,3.05s.24,1.47,0,2.03c-.56,1.29-2.3,3.93-3.05,5.08-3.3,5.1-7.72,8.74-12.71,11.7-8.38,4.96-15.68,4.25-25.42,4.07-4.8-1.76-7.95-3.12-12.2-6.1-8.58-6.02-14.87-14.56-20.85-22.88-39.79-55.38-42.82-123.31-7.12-180,5.15-5.71,9.21-12.61,14.24-18.31,7.19-8.15,15.51-14.01,23.39-21.36.56-1.89-1.2-3.57-2.54-4.58-10.61-8-20.97-19.84-28.98-30-15.88-20.12-26.56-39.51-32.54-64.07-.35-1.45-1.75-4.71-2.03-6.1-4.39-21.7-3.93-47.39,0-69.15.33-1.82,1.57-5.23,2.03-7.12,2.69-10.88,7.58-17.47,16.78-22.88,1.42-.83,6.1-3.85,7.12-4.07,1.18-.26,2.82.22,4.07,0,.39-.07.64-.97,1.02-1.02Z"/>
  <path class="cls-2" d="M644.11,265.27c2.84-.41,11.4-.41,14.24,0,.38.06.62.93,1.02,1.02.92.2,2.2-.23,3.05,0,.47.13,2.44,1.79,3.05,2.03.78.31,2.93.33,4.07,1.02,9.38,5.65,21.75,22.5,27.97,32.03,6.05,9.27,12.37,21.25,16.27,31.53,8.56,22.55,13.11,53.95,9.15,79.32-4.38,28.07-18.22,58.36-37.63,80.34-7.19,8.15-15.51,14.01-23.39,21.36.13.66-.17,1.42,0,2.03.35,1.25,2.3,1.35,2.54,1.53,7.18,5.11,18.16,18.27,23.9,24.92,13.68,15.85,23.91,31.8,31.53,51.87,2.14,5.63,3.55,9.56,5.08,15.25,5.85,21.68,7.3,40.15,5.08,64.07-.24,2.64-1.36,7.45-2.03,10.17-.83,3.34-.55,5.93-1.02,9.15-.16,1.13-2.39,7.63-3.05,9.15-1.42,3.26-5.78,9.21-8.64,11.7-1.27,1.11-4.51,3.13-6.1,4.07-2.05,1.21-4.11,2.35-6.1,3.05-5.07,1.78-13.87,3-19.32,2.03-.38-.07-.61-.92-1.02-1.02-7.68-1.9-14.77-5.4-19.83-11.7-.84-1.05-2.29-3.79-3.05-5.08-.9-1.53-3.81-6.93-4.07-8.14-.31-1.45.24-3.51,0-5.08-.06-.38-.98-.65-1.02-1.02-.21-1.94-.21-5.18,0-7.12.04-.37.98-.65,1.02-1.02.35-3.35.39-5.02,1.02-8.14,9.34-46.69-14.13-83.29-50.34-111.36l-20.34-13.22c-1.96.19-4.22-.27-6.1,0-.47.07-2.55.73-4.07,1.02-5.63,1.07-11.65,3.1-17.29,4.07-31.95,5.48-65.94,5.75-99.66,4.07-11.74-.58-25.76.51-35.59-5.08-.96-.55-8.35-6.15-8.64-6.61-1.99-3.15-7.23-9.91-8.14-13.22-1.07-3.93-.51-8.48-2.03-12.2,1.93-1.59.66-4.7,1.02-7.12.06-.38.93-.62,1.02-1.02.62-2.85,1.24-5.37,2.03-8.14.1-.36,3.68-5.6,4.07-6.1,4.57-5.97,12.81-9.96,19.83-11.7.4-.1.64-.95,1.02-1.02,2.42-.43,5.72.43,8.14,0,.29-.05,1.07-1.62,3.05-1.02,3.26.99,10.82,1.85,14.24,2.03,47.07,2.5,95.69.31,136.27-18.31,24.06-11.04,44.22-28.87,52.37-54.41,10.56-33.06-.88-67.38-25.42-92.54-.95-2.78-3.98-6.14-5.08-9.15-.63-1.71-.66-4.32-1.02-6.1-.08-.39-.96-.64-1.02-1.02-1.22-8.33,1.81-17.09,5.08-24.41,3.15-2.97,4.99-6.92,8.64-9.66,1.13-.85,9.72-5.7,11.19-6.1.85-.23,2.13.2,3.05,0,.4-.09.64-.96,1.02-1.02Z"/>
  <path class="cls-1" d="M501.73,33.4c3.64-.45,13.74-.52,17.29,0,.38.06.62.94,1.02,1.02,7.21,1.44,15.08,3.42,21.36,8.14,9.97,7.49,17.28,18.3,20.85,30,1,3.3.6,5.86,1.02,9.15.05.38.98.65,1.02,1.02.22,2.29.22,5.84,0,8.14-.03.37-.97.64-1.02,1.02-.24,1.92.32,4.29,0,6.1-.03.17-.71,1.85-1.02,3.05-3.22,12.46-12.75,24.37-23.9,31.02-1.02.61-3.82,2.98-4.07,3.05-3.49,1-8.31,3.48-11.19,4.07-10.61,2.17-23.93,1.51-33.56-3.05-9.79-4.12-19.28-11.88-24.92-20.85-1.49-2.37-4.14-7.62-5.08-10.17-8.43-22.67.43-48.16,19.83-62.54,4.35-2.2,9.47-5.35,14.24-7.12,2.22-.82,4.9-.62,7.12-1.02.39-.07.64-.97,1.02-1.02Z"/>
  <path class="cls-1" d="M297.83,814.43v-2.03h-2.03c-.46-3.4-7.34-8.91-8.14-11.7-.97-3.38-3.19-6.88-4.07-10.17-.75-2.83-.58-6.28-1.02-9.15-.06-.38-.98-.65-1.02-1.02-2.06-19.93,8.92-39.07,24.92-50.34,5.08-1.66,11.26-6.09,16.27-7.12,11.74-2.4,25.39-1.21,35.59,4.07,12.77,5.79,24.17,18.65,27.97,32.03.43,1.53,1.75,4.67,2.03,6.1,2.22,11.31.57,22.36-4.07,32.54-4.17,9.25-12.48,18.79-20.85,23.9-3.78,2.31-10.95,5.1-15.25,6.1-4.92,1.14-15.97,1.81-21.36,1.02-.38-.06-.62-.94-1.02-1.02-8.34-1.67-15.3-4.05-22.37-9.15-1.9-1.37-3.09-4.4-5.59-4.07Z"/>
  <path class="cls-2" d="M76.64,289.68c2.14-.32,8.66.59,11.19,1.02.38.06.63.95,1.02,1.02,1.25.22,2.89-.26,4.07,0,.38.08,2.6,1.91,3.05,2.03,1.52.42,2.21.35,4.07,1.02,11.61,4.21,23.3,16.8,27.97,27.97,2.09,5.01,2.26,9.02,3.05,14.24.06.38.98.65,1.02,1.02,1.28,12.38-2.81,23.75-8.14,34.58-5.27,6.35-11.52,13.45-18.81,17.8-3.1,1.85-6.01,2.19-9.15,3.05-.45.12-2.67,1.95-3.05,2.03-2.65.57-6.41.53-9.15,1.02-.39.07-.64.97-1.02,1.02-2.26.28-6.9.28-9.15,0-.37-.05-.63-.95-1.02-1.02-1.24-.22-2.85.24-4.07,0-1.39-.27-4.63-1.66-6.1-2.03-14.13-3.63-22.85-12.33-30-23.9-.68-1.1-3.91-5.53-4.07-6.1-.24-.86.24-2.18,0-3.05-.12-.45-1.95-2.67-2.03-3.05-.26-1.18.22-2.82,0-4.07-.07-.39-.97-.64-1.02-1.02-.28-2.26.28-4.86,0-7.12-.05-.37-.95-.63-1.02-1.02-.24-1.3.72-9.02,1.02-11.19.05-.38.95-.63,1.02-1.02.63-3.54.96-6.52,2.03-10.17.17-.57,1.87-1.47,2.03-2.03,1.07-3.72,4.71-9.24,7.12-12.2,4.32-5.32,14.45-12.07,20.85-14.75,2.97-1.24,5.98-1.48,9.15-2.03.39-.07.64-.97,1.02-1.02,2.25-.28,4.84.25,7.12,0,.37-.04.63-.96,1.02-1.02Z"/>
  <path class="cls-2" d="M766.14,464.59c2.83-.52,4.35.93,5.08,1.02,2.25.28,4.92-.32,7.12,0,.38.06.62.94,1.02,1.02,11.22,2.24,16.62,6.55,25.42,13.22,3.12,2.37,10.03,12.81,11.7,16.78.9,2.15,2.59,7.14,3.05,9.15.77,3.36.43,7.91,1.02,11.19.05.29,1.62,1.07,1.02,3.05-.96,3.16-.6,4.07-1.02,7.12-.15,1.11-1.66,4.77-2.03,6.1-4.3,15.17-15.95,28.79-31.02,35.09-2.97,1.24-5.98,1.48-9.15,2.03-.39.07-.64.97-1.02,1.02-2.25.28-4.84-.25-7.12,0-.37.04-.63.96-1.02,1.02-2.11.31-8.71-.59-11.19-1.02-.39-.07-.63-.96-1.02-1.02-1.56-.25-3.63.31-5.08,0s-6.42-3.87-7.12-4.07c-10.43-2.99-18.82-12.88-23.9-21.86-2-3.54-3.97-7.52-5.08-11.19-.87-2.86-.59-5.32-1.02-8.14-.06-.38-.98-.65-1.02-1.02-.32-3.06-.37-9.2,0-12.2.05-.37.95-.63,1.02-1.02.65-3.63.78-7.8,2.03-11.19,5.42-14.63,20.93-29.01,36.1-33.05,4.1-1.09,8.09-.51,12.2-1.02.37-.05.63-.95,1.02-1.02Z"/>
</svg>